<svg width="24" height="24" viewBox="0 0 24 24" fill="none" xmlns="http://www.w3.org/2000/svg">
  <g clip-path="url(#clip0_776_8140)">
  <g filter="url(#filter0_i_776_8140)">
  <ellipse cx="7.82725" cy="16.2426" rx="3.93278" ry="2.1409" transform="rotate(50 7.82725 16.2426)" fill="#00C881"/>
  </g>
  <g filter="url(#filter1_i_776_8140)">
  <ellipse rx="3.14333" ry="1.70577" transform="matrix(-0.997564 -0.0697565 -0.0697565 0.997564 15.1169 18.5353)" fill="#00C881"/>
  </g>
  <g filter="url(#filter2_i_776_8140)">
  <path fill-rule="evenodd" clip-rule="evenodd" d="M12.4525 12.5481C12.4525 12.5481 12.4525 16.0823 9.8275 19.5113C8.13971 21.3049 5.43022 21.2566 6.31635 22.5274C7.20249 23.7983 11.2268 19.9439 11.8778 18.8044C13.4978 15.9464 13.6748 13.8616 13.6748 12.5481C13.6748 11.2346 12.4525 12.5481 12.4525 12.5481Z" fill="#00C881"/>
  </g>
  <g filter="url(#filter3_i_776_8140)">
  <path fill-rule="evenodd" clip-rule="evenodd" d="M14.7383 12.969C15.6363 13.8951 16.2504 15.4629 15.9283 15.5811C15.6063 15.6994 13.9461 13.0104 13.5988 12.969C13.2515 12.9277 13.8403 12.043 14.7383 12.969Z" fill="#00C881"/>
  </g>
  <g filter="url(#filter4_i_776_8140)">
  <path fill-rule="evenodd" clip-rule="evenodd" d="M11.7499 11.5629C11.5163 12.6668 10.0551 14.0154 10.3771 14.1336C10.6992 14.2519 12.7571 13.0812 12.9214 12.7735C13.0858 12.4657 11.9836 10.4589 11.7499 11.5629Z" fill="#00C881"/>
  </g>
  <g filter="url(#filter5_i_776_8140)">
  <path fill-rule="evenodd" clip-rule="evenodd" d="M18.008 2.21003C18.1706 2.57767 17.7846 2.35077 18.008 4.88425C18.2314 7.41773 17.3101 9.79345 14.1216 11.399C10.9332 13.0045 9.76956 5.35904 9.36823 4.88425C11.4763 6.24286 12.2414 7.98379 14.3687 4.56671C16.496 1.14963 17.8454 1.84239 18.008 2.21003Z" fill="#DB454B"/>
  <path fill-rule="evenodd" clip-rule="evenodd" d="M18.008 2.21003C18.1706 2.57767 17.7846 2.35077 18.008 4.88425C18.2314 7.41773 17.3101 9.79345 14.1216 11.399C10.9332 13.0045 9.76956 5.35904 9.36823 4.88425C11.4763 6.24286 12.2414 7.98379 14.3687 4.56671C16.496 1.14963 17.8454 1.84239 18.008 2.21003Z" fill="url(#paint0_linear_776_8140)"/>
  </g>
  <path fill-rule="evenodd" clip-rule="evenodd" d="M11.0967 1.97199C10.559 2.4318 11.1896 4.01435 10.9509 4.91584C10.1618 7.33428 10.5235 9.85579 13.2682 12.1355C16.0128 14.4151 19.2985 6.93243 19.7966 6.55984C17.4361 7.41069 15.8705 9.22965 14.5685 5.42289C13.2664 1.61614 11.6345 1.51218 11.0967 1.97199Z" fill="#DB454B"/>
  <path fill-rule="evenodd" clip-rule="evenodd" d="M11.0967 1.97199C10.559 2.4318 11.1896 4.01435 10.9509 4.91584C10.1618 7.33428 10.5235 9.85579 13.2682 12.1355C16.0128 14.4151 19.2985 6.93243 19.7966 6.55984C17.4361 7.41069 15.8705 9.22965 14.5685 5.42289C13.2664 1.61614 11.6345 1.51218 11.0967 1.97199Z" fill="url(#paint1_linear_776_8140)"/>
  <g filter="url(#filter6_i_776_8140)">
  <path fill-rule="evenodd" clip-rule="evenodd" d="M20.4186 4.66629C20.5833 4.89818 19.6052 5.05118 20.1135 7.28757C20.6219 9.52396 19.8087 11.7089 16.3324 13.3846C12.8561 15.0603 10.0247 7.37583 9.51939 6.98461C12.06 8.02958 13.8459 10.4924 15.9306 7.28757C18.0152 4.08269 20.2538 4.43439 20.4186 4.66629Z" fill="#F54D54"/>
  <path fill-rule="evenodd" clip-rule="evenodd" d="M20.4186 4.66629C20.5833 4.89818 19.6052 5.05118 20.1135 7.28757C20.6219 9.52396 19.8087 11.7089 16.3324 13.3846C12.8561 15.0603 10.0247 7.37583 9.51939 6.98461C12.06 8.02958 13.8459 10.4924 15.9306 7.28757C18.0152 4.08269 20.2538 4.43439 20.4186 4.66629Z" fill="url(#paint2_radial_776_8140)"/>
  <path fill-rule="evenodd" clip-rule="evenodd" d="M20.4186 4.66629C20.5833 4.89818 19.6052 5.05118 20.1135 7.28757C20.6219 9.52396 19.8087 11.7089 16.3324 13.3846C12.8561 15.0603 10.0247 7.37583 9.51939 6.98461C12.06 8.02958 13.8459 10.4924 15.9306 7.28757C18.0152 4.08269 20.2538 4.43439 20.4186 4.66629Z" fill="url(#paint3_linear_776_8140)"/>
  <path fill-rule="evenodd" clip-rule="evenodd" d="M20.4186 4.66629C20.5833 4.89818 19.6052 5.05118 20.1135 7.28757C20.6219 9.52396 19.8087 11.7089 16.3324 13.3846C12.8561 15.0603 10.0247 7.37583 9.51939 6.98461C12.06 8.02958 13.8459 10.4924 15.9306 7.28757C18.0152 4.08269 20.2538 4.43439 20.4186 4.66629Z" fill="url(#paint4_linear_776_8140)"/>
  </g>
  <g filter="url(#filter7_i_776_8140)">
  <path fill-rule="evenodd" clip-rule="evenodd" d="M8.36524 4.4594C8.202 4.6433 9.54524 5.92509 9.34823 7.36209C9.15121 8.79909 7.13536 11.8575 12.3228 13.3059C17.5103 14.7543 19.2653 10.8887 19.7706 10.4975C17.23 11.5425 13.3718 11.3261 12.4514 7.89275C11.531 4.4594 8.52847 4.27551 8.36524 4.4594Z" fill="#F54D54"/>
  </g>
  </g>
  <defs>
  <filter id="filter0_i_776_8140" x="4.81354" y="12.9297" width="6.0274" height="7.18823" filterUnits="userSpaceOnUse" color-interpolation-filters="sRGB">
  <feFlood flood-opacity="0" result="BackgroundImageFix"/>
  <feBlend mode="normal" in="SourceGraphic" in2="BackgroundImageFix" result="shape"/>
  <feColorMatrix in="SourceAlpha" type="matrix" values="0 0 0 0 0 0 0 0 0 0 0 0 0 0 0 0 0 0 127 0" result="hardAlpha"/>
  <feOffset dy="0.5625"/>
  <feGaussianBlur stdDeviation="0.46875"/>
  <feComposite in2="hardAlpha" operator="arithmetic" k2="-1" k3="1"/>
  <feColorMatrix type="matrix" values="0 0 0 0 1 0 0 0 0 1 0 0 0 0 1 0 0 0 0.6 0"/>
  <feBlend mode="normal" in2="shape" result="effect1_innerShadow_776_8140"/>
  </filter>
  <filter id="filter1_i_776_8140" x="11.9789" y="16.8193" width="6.27594" height="3.99438" filterUnits="userSpaceOnUse" color-interpolation-filters="sRGB">
  <feFlood flood-opacity="0" result="BackgroundImageFix"/>
  <feBlend mode="normal" in="SourceGraphic" in2="BackgroundImageFix" result="shape"/>
  <feColorMatrix in="SourceAlpha" type="matrix" values="0 0 0 0 0 0 0 0 0 0 0 0 0 0 0 0 0 0 127 0" result="hardAlpha"/>
  <feOffset dy="0.5625"/>
  <feGaussianBlur stdDeviation="0.46875"/>
  <feComposite in2="hardAlpha" operator="arithmetic" k2="-1" k3="1"/>
  <feColorMatrix type="matrix" values="0 0 0 0 1 0 0 0 0 1 0 0 0 0 1 0 0 0 0.6 0"/>
  <feBlend mode="normal" in2="shape" result="effect1_innerShadow_776_8140"/>
  </filter>
  <filter id="filter2_i_776_8140" x="6.1427" y="11.9644" width="7.5321" height="11.3794" filterUnits="userSpaceOnUse" color-interpolation-filters="sRGB">
  <feFlood flood-opacity="0" result="BackgroundImageFix"/>
  <feBlend mode="normal" in="SourceGraphic" in2="BackgroundImageFix" result="shape"/>
  <feColorMatrix in="SourceAlpha" type="matrix" values="0 0 0 0 0 0 0 0 0 0 0 0 0 0 0 0 0 0 127 0" result="hardAlpha"/>
  <feOffset dy="0.5625"/>
  <feGaussianBlur stdDeviation="0.46875"/>
  <feComposite in2="hardAlpha" operator="arithmetic" k2="-1" k3="1"/>
  <feColorMatrix type="matrix" values="0 0 0 0 1 0 0 0 0 1 0 0 0 0 1 0 0 0 0.6 0"/>
  <feBlend mode="normal" in2="shape" result="effect1_innerShadow_776_8140"/>
  </filter>
  <filter id="filter3_i_776_8140" x="13.4977" y="12.5481" width="2.51733" height="3.59937" filterUnits="userSpaceOnUse" color-interpolation-filters="sRGB">
  <feFlood flood-opacity="0" result="BackgroundImageFix"/>
  <feBlend mode="normal" in="SourceGraphic" in2="BackgroundImageFix" result="shape"/>
  <feColorMatrix in="SourceAlpha" type="matrix" values="0 0 0 0 0 0 0 0 0 0 0 0 0 0 0 0 0 0 127 0" result="hardAlpha"/>
  <feOffset dy="0.5625"/>
  <feGaussianBlur stdDeviation="0.46875"/>
  <feComposite in2="hardAlpha" operator="arithmetic" k2="-1" k3="1"/>
  <feColorMatrix type="matrix" values="0 0 0 0 1 0 0 0 0 1 0 0 0 0 1 0 0 0 0.6 0"/>
  <feBlend mode="normal" in2="shape" result="effect1_innerShadow_776_8140"/>
  </filter>
  <filter id="filter4_i_776_8140" x="10.331" y="11.2344" width="2.60706" height="3.47021" filterUnits="userSpaceOnUse" color-interpolation-filters="sRGB">
  <feFlood flood-opacity="0" result="BackgroundImageFix"/>
  <feBlend mode="normal" in="SourceGraphic" in2="BackgroundImageFix" result="shape"/>
  <feColorMatrix in="SourceAlpha" type="matrix" values="0 0 0 0 0 0 0 0 0 0 0 0 0 0 0 0 0 0 127 0" result="hardAlpha"/>
  <feOffset dy="0.5625"/>
  <feGaussianBlur stdDeviation="0.46875"/>
  <feComposite in2="hardAlpha" operator="arithmetic" k2="-1" k3="1"/>
  <feColorMatrix type="matrix" values="0 0 0 0 1 0 0 0 0 1 0 0 0 0 1 0 0 0 0.6 0"/>
  <feBlend mode="normal" in2="shape" result="effect1_innerShadow_776_8140"/>
  </filter>
  <filter id="filter5_i_776_8140" x="9.36823" y="1.89307" width="8.79347" height="9.83955" filterUnits="userSpaceOnUse" color-interpolation-filters="sRGB">
  <feFlood flood-opacity="0" result="BackgroundImageFix"/>
  <feBlend mode="normal" in="SourceGraphic" in2="BackgroundImageFix" result="shape"/>
  <feColorMatrix in="SourceAlpha" type="matrix" values="0 0 0 0 0 0 0 0 0 0 0 0 0 0 0 0 0 0 127 0" result="hardAlpha"/>
  <feOffset dx="0.1125" dy="0.1125"/>
  <feGaussianBlur stdDeviation="0.1875"/>
  <feComposite in2="hardAlpha" operator="arithmetic" k2="-1" k3="1"/>
  <feColorMatrix type="matrix" values="0 0 0 0 0.694118 0 0 0 0 0.121569 0 0 0 0 0.184314 0 0 0 0.5 0"/>
  <feBlend mode="normal" in2="shape" result="effect1_innerShadow_776_8140"/>
  </filter>
  <filter id="filter6_i_776_8140" x="9.51941" y="4.52393" width="11.1056" height="9.28687" filterUnits="userSpaceOnUse" color-interpolation-filters="sRGB">
  <feFlood flood-opacity="0" result="BackgroundImageFix"/>
  <feBlend mode="normal" in="SourceGraphic" in2="BackgroundImageFix" result="shape"/>
  <feColorMatrix in="SourceAlpha" type="matrix" values="0 0 0 0 0 0 0 0 0 0 0 0 0 0 0 0 0 0 127 0" result="hardAlpha"/>
  <feOffset dx="0.1875" dy="0.1875"/>
  <feGaussianBlur stdDeviation="0.1875"/>
  <feComposite in2="hardAlpha" operator="arithmetic" k2="-1" k3="1"/>
  <feColorMatrix type="matrix" values="0 0 0 0 0.886275 0 0 0 0 0.164706 0 0 0 0 0.156863 0 0 0 1 0"/>
  <feBlend mode="normal" in2="shape" result="effect1_innerShadow_776_8140"/>
  </filter>
  <filter id="filter7_i_776_8140" x="8.27644" y="4.41113" width="11.4941" height="9.25552" filterUnits="userSpaceOnUse" color-interpolation-filters="sRGB">
  <feFlood flood-opacity="0" result="BackgroundImageFix"/>
  <feBlend mode="normal" in="SourceGraphic" in2="BackgroundImageFix" result="shape"/>
  <feColorMatrix in="SourceAlpha" type="matrix" values="0 0 0 0 0 0 0 0 0 0 0 0 0 0 0 0 0 0 127 0" result="hardAlpha"/>
  <feOffset dx="-0.075" dy="0.0375"/>
  <feGaussianBlur stdDeviation="0.1875"/>
  <feComposite in2="hardAlpha" operator="arithmetic" k2="-1" k3="1"/>
  <feColorMatrix type="matrix" values="0 0 0 0 0.968627 0 0 0 0 0.403922 0 0 0 0 0.388235 0 0 0 1 0"/>
  <feBlend mode="normal" in2="shape" result="effect1_innerShadow_776_8140"/>
  </filter>
  <linearGradient id="paint0_linear_776_8140" x1="21.5625" y1="7.21886" x2="12.0405" y2="6.1772" gradientUnits="userSpaceOnUse">
  <stop stop-color="#B01E2E"/>
  <stop offset="1" stop-color="#B01E2E" stop-opacity="0"/>
  </linearGradient>
  <linearGradient id="paint1_linear_776_8140" x1="18.7123" y1="8.46574" x2="14.8604" y2="7.9244" gradientUnits="userSpaceOnUse">
  <stop stop-color="#AC1322"/>
  <stop offset="1" stop-color="#AC1322" stop-opacity="0"/>
  </linearGradient>
  <radialGradient id="paint2_radial_776_8140" cx="0" cy="0" r="1" gradientUnits="userSpaceOnUse" gradientTransform="translate(16.6179 10.7617) rotate(-180) scale(2.5814 6.41603)">
  <stop stop-color="#DF2C28"/>
  <stop offset="1" stop-color="#DF2C28" stop-opacity="0"/>
  </radialGradient>
  <linearGradient id="paint3_linear_776_8140" x1="10.9334" y1="13.7506" x2="10.9334" y2="8.51203" gradientUnits="userSpaceOnUse">
  <stop stop-color="#CB4151"/>
  <stop offset="1" stop-color="#CB4151" stop-opacity="0"/>
  </linearGradient>
  <linearGradient id="paint4_linear_776_8140" x1="14.9784" y1="4.73931" x2="14.9784" y2="5.82066" gradientUnits="userSpaceOnUse">
  <stop stop-color="#F86560"/>
  <stop offset="1" stop-color="#F86560" stop-opacity="0"/>
  </linearGradient>
  <clipPath id="clip0_776_8140">
  <rect width="24" height="24" fill="white"/>
  </clipPath>
  </defs>
  </svg>
  