<svg width="24" height="24" viewBox="0 0 24 24" fill="none" xmlns="http://www.w3.org/2000/svg">
  <g clip-path="url(#clip0_776_8165)">
  <g clip-path="url(#clip1_776_8165)">
  <g filter="url(#filter0_i_776_8165)">
  <path fill-rule="evenodd" clip-rule="evenodd" d="M16.4332 14.2724C15.5733 13.377 15.4342 11.9452 15.5653 10.748C15.6152 10.3046 15.669 9.85836 15.7228 9.41216C15.7767 8.96596 15.8305 8.51976 15.8804 8.07634C16.04 6.75824 16.4047 5.35006 17.1726 4.27598C17.8514 3.32174 18.9005 2.71496 20.0226 2.56693C21.1021 2.42451 22.297 2.66319 23.0633 3.49883C23.8978 4.39754 24.1261 5.78153 23.9387 7.01322C23.9064 7.27822 23.8734 7.54412 23.8404 7.81035C23.7629 8.43617 23.6851 9.06381 23.6151 9.68599C23.4927 11.0262 23.0716 12.3968 22.324 13.4952C21.6558 14.4661 20.596 15.0562 19.474 15.2043C18.3955 15.3555 17.2229 15.0869 16.4332 14.2724ZM18.9271 9.15681C18.8514 9.78206 18.7756 10.4076 18.7093 11.0358C18.6349 11.7752 18.883 12.1117 19.4185 12.0411C19.9625 11.9693 20.25 11.5621 20.3244 10.8227C20.3925 10.1382 20.476 9.45611 20.5595 8.77406C20.643 8.09201 20.7266 7.40996 20.7947 6.72544C20.8691 5.98605 20.621 5.64949 20.077 5.72126C19.5415 5.79191 19.254 6.19912 19.1796 6.93852C19.1058 7.67995 19.0165 8.41815 18.9271 9.15681ZM6.66403 12.4435C6.53288 13.6407 6.672 15.0725 7.53196 15.9678C8.32167 16.7824 9.49425 17.051 10.5727 16.8997C11.6948 16.7517 12.7545 16.1615 13.4227 15.1907C14.1704 14.0923 14.5914 12.7217 14.7138 11.3815C14.7838 10.7592 14.8616 10.1316 14.9392 9.5057C14.9722 9.23952 15.0051 8.97366 15.0374 8.70869C15.2248 7.47701 14.9965 6.09301 14.162 5.1943C13.3957 4.35866 12.2008 4.11999 11.1213 4.26241C9.99925 4.41044 8.95012 5.01722 8.27131 5.97146C7.50341 7.04554 7.13875 8.45372 6.97908 9.77181C6.92923 10.2152 6.87539 10.6614 6.82156 11.1076C6.76772 11.5538 6.71389 12 6.66403 12.4435ZM9.80802 12.7312C9.87437 12.1031 9.9501 11.4775 10.0258 10.8523L10.0258 10.8523C10.1152 10.1136 10.2046 9.37542 10.2783 8.63399C10.3527 7.8946 10.6402 7.48738 11.1757 7.41673C11.7197 7.34496 11.9678 7.68152 11.8934 8.42092C11.8253 9.10544 11.7418 9.78749 11.6582 10.4695C11.5747 11.1516 11.4912 11.8336 11.4231 12.5182C11.3487 13.2576 11.0613 13.6648 10.5172 13.7365C9.98171 13.8072 9.73361 13.4706 9.80802 12.7312ZM21.6377 17.3442C22.0951 17.2441 22.3848 16.7922 22.2847 16.3348C22.1847 15.8775 21.7328 15.5878 21.2754 15.6878L7.71155 18.6549C7.25417 18.755 6.9645 19.2069 7.06455 19.6643C7.1646 20.1216 7.61649 20.4113 8.07387 20.3113L21.6377 17.3442ZM19.5239 20.7339C19.9806 20.6308 20.2673 20.1769 20.1641 19.7202C20.061 19.2636 19.6072 18.9769 19.1505 19.0801L6.0105 22.0471C5.55381 22.1503 5.26718 22.6041 5.37031 23.0608C5.47343 23.5175 5.92726 23.8041 6.38395 23.701L19.5239 20.7339Z" fill="#FF584C"/>
  </g>
  <g filter="url(#filter1_i_776_8165)">
  <path d="M5.77341 8.03854L4.25246 19.0655C4.15243 19.7906 3.53267 20.3308 2.80064 20.3308C1.90878 20.3308 1.22368 19.5409 1.34981 18.658L2.38245 11.4295L2.27211 11.5399C1.83874 11.9732 1.16601 12.0561 0.640458 11.7407C-0.0223916 11.343 -0.208262 10.4697 0.260758 9.85527C1.40603 8.35486 3.4302 5.91919 4.5018 5.91919C6.19728 5.91919 5.77341 8.03854 5.77341 8.03854Z" fill="#FF584C"/>
  </g>
  <path fill-rule="evenodd" clip-rule="evenodd" d="M21.9302 4.83324L20.941 5.38974L21.4971 4.39988L20.941 3.41001L21.9302 3.96652L22.9193 3.41001L22.3632 4.39988L22.9193 5.38974L21.9302 4.83324Z" fill="white"/>
  <path fill-rule="evenodd" clip-rule="evenodd" d="M4.63947 8.80756L4.20939 9.04952L4.45118 8.61914L4.20939 8.18877L4.63947 8.43072L5.06955 8.18877L4.82776 8.61914L5.06955 9.04952L4.63947 8.80756Z" fill="white"/>
  <path fill-rule="evenodd" clip-rule="evenodd" d="M8.10636 13.4376L7.8053 13.607L7.97456 13.3057L7.8053 13.0044L8.10636 13.1738L8.40741 13.0044L8.23816 13.3057L8.40741 13.607L8.10636 13.4376Z" fill="white"/>
  <path fill-rule="evenodd" clip-rule="evenodd" d="M19.2695 14.2454L18.9685 14.4148L19.1377 14.1135L18.9685 13.8123L19.2695 13.9817L19.5706 13.8123L19.4013 14.1135L19.5706 14.4148L19.2695 14.2454Z" fill="white"/>
  <path fill-rule="evenodd" clip-rule="evenodd" d="M9.26197 12.7116L9.08993 12.8084L9.18665 12.6363L9.08993 12.4641L9.26197 12.5609L9.434 12.4641L9.33728 12.6363L9.434 12.8084L9.26197 12.7116Z" fill="white"/>
  </g>
  </g>
  <defs>
  <filter id="filter0_i_776_8165" x="5.3493" y="2.52832" width="18.6507" height="21.8294" filterUnits="userSpaceOnUse" color-interpolation-filters="sRGB">
  <feFlood flood-opacity="0" result="BackgroundImageFix"/>
  <feBlend mode="normal" in="SourceGraphic" in2="BackgroundImageFix" result="shape"/>
  <feColorMatrix in="SourceAlpha" type="matrix" values="0 0 0 0 0 0 0 0 0 0 0 0 0 0 0 0 0 0 127 0" result="hardAlpha"/>
  <feOffset dy="0.635805"/>
  <feGaussianBlur stdDeviation="0.529838"/>
  <feComposite in2="hardAlpha" operator="arithmetic" k2="-1" k3="1"/>
  <feColorMatrix type="matrix" values="0 0 0 0 1 0 0 0 0 1 0 0 0 0 1 0 0 0 0.6 0"/>
  <feBlend mode="normal" in2="shape" result="effect1_innerShadow_776_8165"/>
  </filter>
  <filter id="filter1_i_776_8165" x="0" y="5.91919" width="5.8205" height="15.0474" filterUnits="userSpaceOnUse" color-interpolation-filters="sRGB">
  <feFlood flood-opacity="0" result="BackgroundImageFix"/>
  <feBlend mode="normal" in="SourceGraphic" in2="BackgroundImageFix" result="shape"/>
  <feColorMatrix in="SourceAlpha" type="matrix" values="0 0 0 0 0 0 0 0 0 0 0 0 0 0 0 0 0 0 127 0" result="hardAlpha"/>
  <feOffset dy="0.635805"/>
  <feGaussianBlur stdDeviation="0.529838"/>
  <feComposite in2="hardAlpha" operator="arithmetic" k2="-1" k3="1"/>
  <feColorMatrix type="matrix" values="0 0 0 0 1 0 0 0 0 1 0 0 0 0 1 0 0 0 0.6 0"/>
  <feBlend mode="normal" in2="shape" result="effect1_innerShadow_776_8165"/>
  </filter>
  <clipPath id="clip0_776_8165">
  <rect width="24" height="24" fill="white"/>
  </clipPath>
  <clipPath id="clip1_776_8165">
  <rect width="24" height="24" fill="white"/>
  </clipPath>
  </defs>
  </svg>
  