<svg width="24" height="24" viewBox="0 0 24 24" fill="none" xmlns="http://www.w3.org/2000/svg">
  <g clip-path="url(#clip0_776_8128)">
  <g clip-path="url(#clip1_776_8128)">
  <mask id="mask0_776_8128" style="mask-type:alpha" maskUnits="userSpaceOnUse" x="3" y="5" width="16" height="18">
  <path d="M18.1966 16.8357L18.0806 9.79322C18.0064 9.12494 17.6397 8.22693 16.3867 8.22693C14.9248 8.29654 14.8668 9.79322 14.8668 9.79322L12.6392 5.8137C12.0823 4.96673 11.169 4.90778 10.5972 5.25678C10.0255 5.60577 9.9011 6.31258 9.9011 6.31258L9.43701 5.70927C9.08802 5.13751 8.04364 5.07092 7.51105 5.39601C6.62707 5.93558 6.49862 7.05276 7.07017 7.67003C7.03268 7.62954 6.59587 7.47828 5.86355 7.92528C5.29179 8.27427 5.11518 9.31758 5.43425 9.90925C5.75332 10.5009 5.79972 10.5937 5.79972 10.5937C5.79972 10.5937 5.30663 10.3617 4.52928 10.8838C3.97321 11.2573 3.77421 12.3657 4.1232 12.9374L5.99533 16.094L8.57195 20.3041C10.0867 22.4512 13.3164 23.1925 15.6632 21.7669C17.2633 20.7949 18.3491 18.7408 18.1966 16.8357Z" fill="#FFC080"/>
  </mask>
  <g mask="url(#mask0_776_8128)">
  <g filter="url(#filter0_i_776_8128)">
  <path d="M18.1966 16.8357L18.0806 9.79322C18.0064 9.12494 17.6397 8.22693 16.3867 8.22693C14.9248 8.29654 14.8668 9.79322 14.8668 9.79322L12.6392 5.8137C12.0823 4.96673 11.169 4.90778 10.5972 5.25678C10.0255 5.60577 9.9011 6.31258 9.9011 6.31258L9.43701 5.70927C9.08802 5.13751 8.04364 5.07092 7.51105 5.39601C6.62707 5.93558 6.49862 7.05276 7.07017 7.67003C7.03268 7.62954 6.59587 7.47828 5.86355 7.92528C5.29179 8.27427 5.11518 9.31758 5.43425 9.90925C5.75332 10.5009 5.79972 10.5937 5.79972 10.5937C5.79972 10.5937 5.30663 10.3617 4.52928 10.8838C3.97321 11.2573 3.77421 12.3657 4.1232 12.9374L5.99533 16.094L8.57195 20.3041C10.0867 22.4512 13.3164 23.1925 15.6632 21.7669C17.2633 20.7949 18.3491 18.7408 18.1966 16.8357Z" fill="#FFCD99"/>
  </g>
  <g filter="url(#filter1_f_776_8128)">
  <path d="M9.96994 6.4228L9.90118 6.31214C9.90353 6.29909 9.98302 5.86863 10.2903 5.51733L10.6069 6.02686C10.8577 6.43035 11.1975 6.97662 11.5534 7.54776C12.2663 8.69195 13.0404 9.93054 13.296 10.3256C13.4085 10.4994 13.3588 10.7316 13.1849 10.8441C13.011 10.9566 12.7788 10.9069 12.6663 10.733C12.4063 10.3311 11.6277 9.08534 10.9168 7.94438C10.5608 7.37294 10.2208 6.82643 9.96994 6.4228Z" fill="#FFAC56" fill-opacity="0.5"/>
  <path d="M7.03313 7.64906C6.97303 7.63269 6.91648 7.62177 6.86372 7.6149C6.94153 7.62054 6.99849 7.63522 7.03313 7.64906Z" fill="#FFAC56" fill-opacity="0.5"/>
  <path d="M7.05746 7.65593C7.2674 7.71731 7.51886 7.8453 7.80162 8.09665C7.82309 8.11573 7.87322 8.17249 7.95347 8.28533C8.02908 8.39164 8.11814 8.52854 8.21779 8.69C8.41693 9.01265 8.64889 9.41792 8.88592 9.8408C9.01043 10.063 9.13702 10.2913 9.26078 10.5145C9.60082 11.1278 9.91949 11.7026 10.1148 12.0045C10.2273 12.1784 10.4595 12.2281 10.6334 12.1156C10.8073 12.0031 10.857 11.7709 10.7445 11.597C10.5641 11.3183 10.267 10.7825 9.9335 10.1809C9.80621 9.95135 9.67359 9.71217 9.54016 9.4741C9.3023 9.04974 9.06392 8.63294 8.85603 8.2961C8.75216 8.12782 8.65355 7.97562 8.56465 7.85064C8.48041 7.7322 8.38922 7.61549 8.29989 7.53609C7.70307 7.00558 7.153 6.85857 6.72739 6.85515C6.74795 7.15185 6.85879 7.43472 7.05746 7.65593Z" fill="#FFAC56" fill-opacity="0.5"/>
  <path d="M5.76763 10.5814C5.68356 10.563 5.6038 10.5505 5.53194 10.5428C5.64605 10.5468 5.72632 10.5677 5.76763 10.5814Z" fill="#FFAC56" fill-opacity="0.5"/>
  <path d="M5.7969 10.588C5.82045 10.5934 5.84429 10.5994 5.86835 10.6058C6.11256 10.6708 6.3376 10.7744 6.48913 10.9091C6.56512 10.9766 6.68011 11.1157 6.82826 11.3257C6.97162 11.529 7.13049 11.776 7.29482 12.0407C7.42762 12.2547 7.56616 12.484 7.70126 12.7076C7.89242 13.024 8.07673 13.3291 8.22811 13.563C8.34062 13.7369 8.57279 13.7867 8.74667 13.6742C8.92055 13.5616 8.9703 13.3295 8.85779 13.1556C8.70972 12.9268 8.53868 12.6434 8.35497 12.3391C8.21954 12.1148 8.07712 11.8789 7.93204 11.6452C7.76505 11.3762 7.59713 11.1146 7.44113 10.8934C7.28992 10.6791 7.13299 10.478 6.98739 10.3485C6.71704 10.1082 6.36982 9.96316 6.0613 9.88102C5.82079 9.81699 5.57827 9.78451 5.37625 9.78305C5.39334 9.8269 5.41267 9.86902 5.43427 9.90908C5.7119 10.4239 5.78309 10.561 5.7969 10.588Z" fill="#FFAC56" fill-opacity="0.5"/>
  </g>
  </g>
  <mask id="mask1_776_8128" style="mask-type:alpha" maskUnits="userSpaceOnUse" x="8" y="4" width="15" height="19">
  <path d="M22.4648 16.7788V9.66553C22.3898 8.99053 21.9023 8.0835 20.6367 8.0835C19.1601 8.15381 19.1015 9.66553 19.1015 9.66553L16.8515 5.64601C16.289 4.79054 15.3665 4.731 14.789 5.0835C14.2115 5.436 14.0859 6.14991 14.0859 6.14991L13.6172 5.54054C13.2647 4.96304 12.2098 4.89578 11.6718 5.22413C10.779 5.76912 10.6492 6.89753 11.2265 7.521C11.1887 7.48011 10.7475 7.32732 10.0078 7.77882C9.43028 8.13132 9.25189 9.18511 9.57416 9.78273C9.89644 10.3803 9.94331 10.4741 9.94331 10.4741C9.94331 10.4741 9.44527 10.2397 8.66011 10.7671C8.09845 11.1443 7.89745 12.2638 8.24995 12.8413L10.1409 16.0296L12.7434 20.2821C14.2734 22.4507 17.5355 23.1995 19.9059 21.7596C21.5221 20.7778 22.6187 18.703 22.4648 16.7788Z" fill="#FFE6CC"/>
  </mask>
  <g mask="url(#mask1_776_8128)">
  <g filter="url(#filter2_i_776_8128)">
  <path d="M22.4648 16.7788V9.66553C22.3898 8.99053 21.9023 8.0835 20.6367 8.0835C19.1601 8.15381 19.1015 9.66553 19.1015 9.66553L16.8515 5.64601C16.289 4.79054 15.3665 4.731 14.789 5.0835C14.2115 5.436 14.0859 6.14991 14.0859 6.14991L13.6172 5.54054C13.2647 4.96304 12.2098 4.89578 11.6718 5.22413C10.779 5.76912 10.6492 6.89753 11.2265 7.521C11.1887 7.48011 10.7475 7.32732 10.0078 7.77882C9.43028 8.13132 9.25189 9.18511 9.57416 9.78273C9.89644 10.3803 9.94331 10.4741 9.94331 10.4741C9.94331 10.4741 9.44527 10.2397 8.66011 10.7671C8.09845 11.1443 7.89745 12.2638 8.24995 12.8413L10.1409 16.0296L12.7434 20.2821C14.2734 22.4507 17.5355 23.1995 19.9059 21.7596C21.5221 20.7778 22.6187 18.703 22.4648 16.7788Z" fill="#FFE6CC"/>
  </g>
  <g filter="url(#filter3_f_776_8128)">
  <path d="M14.0884 6.13762L14.0982 6.15338C14.3491 6.55701 14.689 7.10352 15.045 7.67496C15.7559 8.81592 16.5345 10.0617 16.7946 10.4636C16.9071 10.6375 17.1392 10.6872 17.3131 10.5747C17.487 10.4622 17.5367 10.23 17.4242 10.0561C17.1686 9.66112 16.3945 8.42253 15.6816 7.27834C15.3257 6.7072 14.9859 6.16093 14.7351 5.75744L14.4796 5.34619C14.1949 5.6713 14.1035 6.0638 14.0884 6.13762Z" fill="#FFAC56" fill-opacity="0.4"/>
  <path d="M11.1666 7.49191C11.0503 7.46993 10.9487 7.46356 10.8686 7.46605C11.0068 7.45591 11.1073 7.47293 11.1666 7.49191Z" fill="#FFAC56" fill-opacity="0.4"/>
  <path d="M12.1317 7.98463C11.805 7.69417 11.4724 7.55707 11.2078 7.50022C11.0148 7.2822 10.9053 7.00597 10.8817 6.71569C11.33 6.71099 12.004 6.86759 12.63 7.42407C12.7843 7.56122 12.9799 7.83595 13.1737 8.1299C13.378 8.43975 13.6113 8.82059 13.8443 9.20957C14.0182 9.49983 14.1909 9.79281 14.3523 10.0667C14.6294 10.5371 14.8735 10.9512 15.0336 11.1987C15.1461 11.3726 15.0964 11.6047 14.9225 11.7172C14.7486 11.8298 14.5164 11.78 14.4039 11.6061C14.2358 11.3463 13.9766 10.9065 13.6918 10.4233C13.5324 10.1528 13.3649 9.86862 13.2009 9.59496C12.9693 9.20827 12.7426 8.83863 12.5475 8.54268C12.342 8.23083 12.199 8.04443 12.1317 7.98463Z" fill="#FFAC56" fill-opacity="0.4"/>
  <path d="M10.0307 10.4898C9.99671 10.4759 9.96376 10.4633 9.93199 10.4519C9.90473 10.3995 9.81874 10.2361 9.57424 9.78269C9.54456 9.72765 9.51913 9.66875 9.49786 9.60688C9.74778 9.60355 10.048 9.68722 10.3131 9.79493C10.6176 9.91869 10.9436 10.102 11.1945 10.325C11.3463 10.4599 11.5057 10.6793 11.6556 10.9081C11.8115 11.1464 11.9793 11.4305 12.1458 11.7209C12.2469 11.8972 12.3471 12.0748 12.4444 12.2476C12.6743 12.6554 12.8889 13.036 13.0649 13.3081C13.1774 13.4819 13.1276 13.7141 12.9538 13.8266C12.7799 13.9391 12.5477 13.8894 12.4352 13.7155C12.246 13.4231 12.0125 13.0089 11.7769 12.5909C11.6824 12.4233 11.5876 12.2551 11.4952 12.0939C11.3304 11.8066 11.1714 11.538 11.028 11.3189C10.8784 11.0904 10.766 10.9475 10.6962 10.8855C10.5252 10.7335 10.2789 10.5906 10.0307 10.4898Z" fill="#FFAC56" fill-opacity="0.4"/>
  <path d="M19.8026 10.905C19.6734 10.6822 19.4131 10.2177 19.102 9.65823C19.1058 9.59417 19.1432 9.11947 19.432 8.70741C19.8799 9.51566 20.2824 10.2375 20.4514 10.5287C20.5553 10.7079 20.4943 10.9373 20.3151 11.0413C20.136 11.1452 19.9065 11.0842 19.8026 10.905Z" fill="#FFAC56" fill-opacity="0.4"/>
  </g>
  </g>
  <g filter="url(#filter4_i_776_8128)">
  <path d="M6.03889 3.6128L5.12389 2.37414C4.98139 2.1806 5.07139 1.90188 5.29639 1.83221L6.31639 1.51481C6.54139 1.44513 6.76639 1.63093 6.75139 1.87092L6.64639 3.42701C6.61639 3.74442 6.22639 3.86828 6.03889 3.6128Z" fill="#00C881"/>
  <path d="M4.26889 4.82932L2.87389 4.24433C2.65639 4.15433 2.59639 3.87682 2.76139 3.70432L3.48889 2.93183C3.64639 2.75933 3.93139 2.80433 4.03639 3.01433L4.70389 4.37182C4.83139 4.64932 4.55389 4.94932 4.26889 4.82932Z" fill="#00C881"/>
  <path d="M1.88984 7.01923L3.44346 6.81689C3.76195 6.77798 3.86293 6.36551 3.59882 6.17873L2.30155 5.3071C2.09958 5.1748 1.81993 5.28374 1.76555 5.51722L1.5092 6.5912C1.45483 6.83245 1.64903 7.05036 1.88984 7.01923Z" fill="#00C881"/>
  </g>
  </g>
  </g>
  <defs>
  <filter id="filter0_i_776_8128" x="3.01227" y="4.11865" width="15.1986" height="18.3813" filterUnits="userSpaceOnUse" color-interpolation-filters="sRGB">
  <feFlood flood-opacity="0" result="BackgroundImageFix"/>
  <feBlend mode="normal" in="SourceGraphic" in2="BackgroundImageFix" result="shape"/>
  <feColorMatrix in="SourceAlpha" type="matrix" values="0 0 0 0 0 0 0 0 0 0 0 0 0 0 0 0 0 0 127 0" result="hardAlpha"/>
  <feOffset dx="-0.9375" dy="-0.9375"/>
  <feGaussianBlur stdDeviation="1.92188"/>
  <feComposite in2="hardAlpha" operator="arithmetic" k2="-1" k3="1"/>
  <feColorMatrix type="matrix" values="0 0 0 0 1 0 0 0 0 0.67451 0 0 0 0 0.4 0 0 0 1 0"/>
  <feBlend mode="normal" in2="shape" result="effect1_innerShadow_776_8128"/>
  </filter>
  <filter id="filter1_f_776_8128" x="5.095" y="5.23608" width="8.54245" height="8.77954" filterUnits="userSpaceOnUse" color-interpolation-filters="sRGB">
  <feFlood flood-opacity="0" result="BackgroundImageFix"/>
  <feBlend mode="normal" in="SourceGraphic" in2="BackgroundImageFix" result="shape"/>
  <feGaussianBlur stdDeviation="0.140625" result="effect1_foregroundBlur_776_8128"/>
  </filter>
  <filter id="filter2_i_776_8128" x="7.13727" y="3.94336" width="15.3419" height="18.5566" filterUnits="userSpaceOnUse" color-interpolation-filters="sRGB">
  <feFlood flood-opacity="0" result="BackgroundImageFix"/>
  <feBlend mode="normal" in="SourceGraphic" in2="BackgroundImageFix" result="shape"/>
  <feColorMatrix in="SourceAlpha" type="matrix" values="0 0 0 0 0 0 0 0 0 0 0 0 0 0 0 0 0 0 127 0" result="hardAlpha"/>
  <feOffset dx="-0.9375" dy="-0.9375"/>
  <feGaussianBlur stdDeviation="1.59375"/>
  <feComposite in2="hardAlpha" operator="arithmetic" k2="-1" k3="1"/>
  <feColorMatrix type="matrix" values="0 0 0 0 1 0 0 0 0 0.67451 0 0 0 0 0.4 0 0 0 1 0"/>
  <feBlend mode="normal" in2="shape" result="effect1_innerShadow_776_8128"/>
  </filter>
  <filter id="filter3_f_776_8128" x="9.21661" y="5.06494" width="11.5667" height="9.10303" filterUnits="userSpaceOnUse" color-interpolation-filters="sRGB">
  <feFlood flood-opacity="0" result="BackgroundImageFix"/>
  <feBlend mode="normal" in="SourceGraphic" in2="BackgroundImageFix" result="shape"/>
  <feGaussianBlur stdDeviation="0.140625" result="effect1_foregroundBlur_776_8128"/>
  </filter>
  <filter id="filter4_i_776_8128" x="1.5" y="1.5" width="5.25211" height="5.52222" filterUnits="userSpaceOnUse" color-interpolation-filters="sRGB">
  <feFlood flood-opacity="0" result="BackgroundImageFix"/>
  <feBlend mode="normal" in="SourceGraphic" in2="BackgroundImageFix" result="shape"/>
  <feColorMatrix in="SourceAlpha" type="matrix" values="0 0 0 0 0 0 0 0 0 0 0 0 0 0 0 0 0 0 127 0" result="hardAlpha"/>
  <feOffset/>
  <feGaussianBlur stdDeviation="0.1875"/>
  <feComposite in2="hardAlpha" operator="arithmetic" k2="-1" k3="1"/>
  <feColorMatrix type="matrix" values="0 0 0 0 1 0 0 0 0 1 0 0 0 0 1 0 0 0 0.8 0"/>
  <feBlend mode="normal" in2="shape" result="effect1_innerShadow_776_8128"/>
  </filter>
  <clipPath id="clip0_776_8128">
  <rect width="24" height="24" fill="white"/>
  </clipPath>
  <clipPath id="clip1_776_8128">
  <rect width="24" height="24" fill="white"/>
  </clipPath>
  </defs>
  </svg>
  