<svg xmlns="http://www.w3.org/2000/svg" id="mySvg">\n      <g clip-path="url(#1ghqg7lj8__a)">\n        <path d="M17 2v2.99c0 .529.394.95.9 1.004l.11.006H21v15.008a.993.993 0 0 1-.993.992H3.993A1 1 0 0 1 3 21.008V2.992C3 2.444 3.445 2 3.993 2H17Z" fill="#E4E4E4"/>\n        <path d="M16 4.99V3H4v18h16V7h-2.043l-.163-.01a2.002 2.002 0 0 1-1.788-1.836L16 4.99Z" fill="#fff"/>\n        <path fill-rule="evenodd" clip-rule="evenodd" d="M16 2h.5c.276 0 .652.152.855.355l3.29 3.29c.196.196.355.587.355.855V7h-4c-.552 0-1-.444-1-1V2Z" fill="#E4E4E4"/>\n        <path fill-rule="evenodd" clip-rule="evenodd" d="M7.913 9.593c0-.295.22-.544.512-.581l7.915-1.006a.586.586 0 0 1 .66.582v1.086l-.001-.001.001 6.985c0 .288-.21.534-.496.578l-2.654.414a.586.586 0 0 1-.676-.58v-1.793c0-.288.21-.534.496-.579l1.416-.221V9.916l-5.26.668v7.414c0 .29-.21.535-.496.58l-2.654.413A.586.586 0 0 1 6 18.41v-1.793c0-.289.21-.534.496-.579l1.417-.221V9.593Z" fill="#36BE5E"/>\n      </g>\n    </svg>