<svg width="24" height="24" viewBox="0 0 24 24" fill="none" xmlns="http://www.w3.org/2000/svg">
  <g clip-path="url(#clip0_680_14902)">
  <path fill-rule="evenodd" clip-rule="evenodd" d="M8.39982 11.2499C8.44895 11.2499 8.49796 11.2475 8.54685 11.2427C8.59574 11.2379 8.64428 11.2307 8.69247 11.2211C8.74065 11.2115 8.78825 11.1996 8.83526 11.1853C8.88227 11.1711 8.92848 11.1545 8.97386 11.1357C9.01925 11.1169 9.06361 11.0959 9.10694 11.0728C9.15026 11.0496 9.19235 11.0244 9.2332 10.9971C9.27405 10.9698 9.31346 10.9406 9.35144 10.9094C9.38941 10.8783 9.42577 10.8453 9.46051 10.8106C9.49525 10.7758 9.5282 10.7395 9.55937 10.7015C9.59054 10.6635 9.61977 10.6241 9.64706 10.5833C9.67436 10.5424 9.69958 10.5003 9.72274 10.457C9.7459 10.4137 9.76688 10.3693 9.78568 10.3239C9.80448 10.2785 9.82101 10.2323 9.83527 10.1853C9.84953 10.1383 9.86145 10.0907 9.87104 10.0425C9.88062 9.99436 9.88782 9.94582 9.89264 9.89693C9.89746 9.84804 9.89986 9.79904 9.89986 9.74991C9.89986 9.70078 9.89746 9.65177 9.89264 9.60288C9.88782 9.55399 9.88062 9.50545 9.87104 9.45727C9.86145 9.40909 9.84953 9.36149 9.83527 9.31448C9.82101 9.26747 9.80448 9.22127 9.78568 9.17588C9.76688 9.13049 9.7459 9.08614 9.72274 9.04281C9.69958 8.99949 9.67436 8.9574 9.64706 8.91655C9.61977 8.87571 9.59054 8.8363 9.55937 8.79832C9.5282 8.76034 9.49525 8.72399 9.46051 8.68925C9.42577 8.65451 9.38941 8.62156 9.35144 8.59039C9.31346 8.55923 9.27405 8.53 9.2332 8.5027C9.19235 8.47541 9.15026 8.45018 9.10694 8.42703C9.06361 8.40387 9.01925 8.38289 8.97386 8.36409C8.92848 8.34529 8.88227 8.32876 8.83526 8.3145C8.78825 8.30024 8.74065 8.28831 8.69247 8.27873C8.64428 8.26915 8.59574 8.26195 8.54685 8.25713C8.49796 8.25232 8.44895 8.24991 8.39982 8.24991C8.35069 8.24991 8.30168 8.25232 8.25279 8.25713C8.2039 8.26195 8.15536 8.26915 8.10718 8.27873C8.05899 8.28831 8.0114 8.30024 7.96438 8.3145C7.91737 8.32876 7.87117 8.34529 7.82578 8.36409C7.78039 8.38289 7.73603 8.40387 7.69271 8.42703C7.64938 8.45018 7.60729 8.47541 7.56644 8.5027C7.5256 8.53 7.48618 8.55923 7.44821 8.59039C7.41023 8.62156 7.37387 8.65451 7.33913 8.68925C7.30439 8.72399 7.27144 8.76034 7.24027 8.79832C7.20911 8.8363 7.17988 8.87571 7.15258 8.91655C7.12529 8.9574 7.10006 8.99949 7.0769 9.04281C7.05374 9.08614 7.03276 9.13049 7.01396 9.17588C6.99516 9.22127 6.97863 9.26747 6.96437 9.31448C6.95011 9.36149 6.93819 9.40909 6.9286 9.45727C6.91902 9.50545 6.91182 9.55399 6.907 9.60288C6.90219 9.65177 6.89978 9.70078 6.89978 9.74991C6.89978 9.79904 6.90219 9.84804 6.907 9.89693C6.91182 9.94582 6.91902 9.99436 6.9286 10.0425C6.93819 10.0907 6.95011 10.1383 6.96437 10.1853C6.97863 10.2323 6.99516 10.2785 7.01396 10.3239C7.03276 10.3693 7.05374 10.4137 7.0769 10.457C7.10006 10.5003 7.12529 10.5424 7.15258 10.5833C7.17988 10.6241 7.20911 10.6635 7.24027 10.7015C7.27144 10.7395 7.30439 10.7758 7.33913 10.8106C7.37387 10.8453 7.41023 10.8783 7.44821 10.9094C7.48618 10.9406 7.5256 10.9698 7.56644 10.9971C7.60729 11.0244 7.64938 11.0496 7.69271 11.0728C7.73603 11.0959 7.78039 11.1169 7.82578 11.1357C7.87117 11.1545 7.91737 11.1711 7.96438 11.1853C8.0114 11.1996 8.05899 11.2115 8.10718 11.2211C8.15536 11.2307 8.2039 11.2379 8.25279 11.2427C8.30168 11.2475 8.35069 11.2499 8.39982 11.2499ZM15.6 11.2499C15.6491 11.2499 15.6981 11.2475 15.747 11.2427C15.7959 11.2379 15.8445 11.2307 15.8927 11.2211C15.9409 11.2115 15.9885 11.1996 16.0355 11.1853C16.0825 11.1711 16.1287 11.1545 16.1741 11.1357C16.2195 11.1169 16.2638 11.0959 16.3071 11.0728C16.3505 11.0496 16.3925 11.0244 16.4334 10.9971C16.4742 10.9698 16.5136 10.9406 16.5517 10.9094C16.5896 10.8783 16.626 10.8453 16.6607 10.8106C16.6955 10.7758 16.7284 10.7395 16.7596 10.7015C16.7907 10.6635 16.82 10.6241 16.8473 10.5833C16.8746 10.5424 16.8998 10.5003 16.9229 10.457C16.9461 10.4137 16.9671 10.3693 16.9859 10.3239C17.0047 10.2785 17.0212 10.2323 17.0354 10.1853C17.0497 10.1383 17.0617 10.0907 17.0713 10.0425C17.0808 9.99436 17.088 9.94582 17.0929 9.89693C17.0977 9.84804 17.1001 9.79904 17.1001 9.74991C17.1001 9.70078 17.0977 9.65177 17.0929 9.60288C17.088 9.55399 17.0808 9.50545 17.0713 9.45727C17.0617 9.40909 17.0497 9.36149 17.0355 9.31448C17.0212 9.26747 17.0047 9.22127 16.9859 9.17588C16.9671 9.13049 16.9461 9.08614 16.9229 9.04281C16.8998 8.99949 16.8746 8.9574 16.8473 8.91655C16.82 8.87571 16.7907 8.8363 16.7596 8.79832C16.7284 8.76034 16.6955 8.72399 16.6607 8.68925C16.626 8.65451 16.5896 8.62156 16.5517 8.59039C16.5136 8.55923 16.4742 8.53 16.4334 8.5027C16.3925 8.47541 16.3505 8.45018 16.3071 8.42703C16.2638 8.40387 16.2195 8.38289 16.1741 8.36409C16.1287 8.34529 16.0825 8.32876 16.0355 8.3145C15.9885 8.30024 15.9409 8.28831 15.8927 8.27873C15.8445 8.26915 15.7959 8.26195 15.747 8.25713C15.6981 8.25232 15.6491 8.24991 15.6 8.24991C15.5509 8.24991 15.5019 8.25232 15.453 8.25713C15.4041 8.26195 15.3556 8.26915 15.3074 8.27873C15.2592 8.28831 15.2116 8.30024 15.1646 8.3145C15.1176 8.32876 15.0714 8.34529 15.026 8.36409C14.9806 8.38289 14.9362 8.40387 14.8929 8.42703C14.8496 8.45018 14.8075 8.47541 14.7667 8.5027C14.7258 8.53 14.6864 8.55923 14.6484 8.59039C14.6104 8.62156 14.5741 8.65451 14.5393 8.68925C14.5046 8.72399 14.4717 8.76034 14.4405 8.79832C14.4093 8.8363 14.3801 8.87571 14.3528 8.91655C14.3255 8.9574 14.3003 8.99949 14.2771 9.04281C14.2539 9.08614 14.233 9.13049 14.2142 9.17588C14.1954 9.22127 14.1788 9.26747 14.1645 9.31448C14.1503 9.36149 14.1384 9.40909 14.1288 9.45727C14.1192 9.50545 14.112 9.55399 14.1072 9.60288C14.1024 9.65177 14.1 9.70078 14.1 9.74991C14.1 9.79904 14.1024 9.84804 14.1072 9.89693C14.112 9.94582 14.1192 9.99436 14.1288 10.0425C14.1384 10.0907 14.1503 10.1383 14.1645 10.1853C14.1788 10.2323 14.1954 10.2785 14.2142 10.3239C14.233 10.3693 14.2539 10.4137 14.2771 10.457C14.3003 10.5003 14.3255 10.5424 14.3528 10.5833C14.3801 10.6241 14.4093 10.6635 14.4405 10.7015C14.4717 10.7395 14.5046 10.7758 14.5393 10.8106C14.5741 10.8453 14.6104 10.8783 14.6484 10.9094C14.6864 10.9406 14.7258 10.9698 14.7667 10.9971C14.8075 11.0244 14.8496 11.0496 14.8929 11.0728C14.9362 11.0959 14.9806 11.1169 15.026 11.1357C15.0714 11.1545 15.1176 11.1711 15.1646 11.1853C15.2116 11.1996 15.2592 11.2115 15.3074 11.2211C15.3556 11.2307 15.4041 11.2379 15.453 11.2427C15.5019 11.2475 15.5509 11.2499 15.6 11.2499Z" fill="#00C881"/>
  <circle cx="12" cy="12" r="10.5" stroke="#000000" stroke-width="1.995" stroke-linecap="round"/>
  <path d="M15.5001 15.5001C15.5001 15.5001 14.5001 17.5001 12.0001 17.5001C9.50012 17.5001 8.50012 15.5001 8.50012 15.5001" stroke="#000000" stroke-width="2" stroke-linecap="round" stroke-linejoin="round"/>
  </g>
  <defs>
  <clipPath id="clip0_680_14902">
  <rect width="24" height="24" fill="white"/>
  </clipPath>
  </defs>
  </svg>
  